<?xml version="1.0"?>
<svg width="900" height="320" xmlns="http://www.w3.org/2000/svg" xmlns:svg="http://www.w3.org/2000/svg" enable-background="new 0 0 900 320" version="1.1" xml:space="preserve">
 <style type="text/css">.st0{fill:none;}
	.st1{enable-background:new    ;}
	.st2{fill:#152982;}
	.st3{fill:#152982;enable-background:new    ;}
	.st4{fill:#FF0000;enable-background:new    ;}</style>
 <g class="layer">
  <title>Layer 1</title>
  <path class="st0" d="m876.08,320l-852.16,0c-13.21,0 -23.92,-10.71 -23.92,-23.92l0,-272.16c0,-13.21 10.71,-23.92 23.92,-23.92l852.16,0c13.21,0 23.92,10.71 23.92,23.92l0,272.16c0,13.21 -10.71,23.92 -23.92,23.92z" id="svg_1"/>
  <g id="svg_2">
   <g class="st1" id="svg_3">
    <g id="svg_4" transform="translate(567.879575, 739.080003)">
     <path class="st2" d="m178.19,-592.07l-49.17,0l-2.69,9.91l18.32,0l-12.54,46.95l12.37,0l12.54,-46.95l18.49,0l2.68,-9.91z" id="svg_5"/>
    </g>
   </g>
   <g class="st1" id="svg_6">
    <g id="svg_7" transform="translate(634.619994, 739.080003)">
     <path class="st2" d="m175.38,-592.15l-12.77,0l-28.87,42.43l-5.8,-42.43l-13.48,0l9.52,56.95l12.37,0l39.03,-56.95z" id="svg_8"/>
    </g>
   </g>
   <g id="svg_9">
    <path class="st3" d="m272.49,151.58c-0.06,-0.01 -0.12,-0.03 -0.18,-0.04c-0.2,0.25 -0.41,0.51 -0.61,0.76c-3.35,4.29 -6.9,8.39 -10.71,12.28c-6.42,6.56 -13.49,12.35 -20.93,17.7c-10.48,7.54 -21.85,13.29 -34.13,17.26c-10,3.23 -20.25,5.15 -30.75,5.59c-4.07,0.17 -8.13,0.09 -12.2,-0.23c-5.62,-0.45 -11.16,-1.36 -16.6,-2.84c-6.59,-1.79 -12.92,-4.23 -18.78,-7.75c-8.79,-5.28 -15.29,-12.59 -19.33,-22.04c-3,-7 -4.27,-14.36 -4.4,-21.93c-0.08,-4.68 0.34,-9.33 1.15,-13.94c1.65,-9.46 4.79,-18.41 9.24,-26.91c4,-7.64 9,-14.58 14.6,-21.11c3,-3.5 6.12,-6.91 9.18,-10.36c0.18,-0.21 0.35,-0.43 0.65,-0.78c-0.53,0 -0.85,0 -1.18,0c-13.41,0 -26.82,0 -40.23,0c-0.27,0 -0.55,-0.01 -0.82,0c-3.07,0.08 -5.58,2.04 -6.26,4.95c-0.17,0.73 -0.21,1.52 -0.21,2.27c0.01,44.81 0.01,89.63 0.01,134.44c0,0.27 -0.01,0.55 0,0.82c0.12,3.23 2.25,5.74 5.4,6.29c0.64,0.11 1.3,0.09 1.96,0.09c55.69,0 111.37,0 167.06,0c0.57,0 1.15,0.01 1.72,-0.01c0.33,-0.01 0.66,-0.03 0.98,-0.09c3.23,-0.61 5.37,-3.17 5.37,-6.47c0,-22.42 0,-44.84 0,-67.27c0,-0.21 0,-0.45 0,-0.68z" id="svg_10"/>
    <path class="st4" d="m182.81,77.27c-0.26,-0.03 -0.34,-0.05 -0.42,-0.05c-13.49,0 -26.98,0 -40.48,-0.01c-0.45,0 -0.69,0.15 -0.9,0.53c-0.99,1.82 -2.04,3.62 -3.02,5.44c-5.09,9.5 -9.38,19.35 -12.4,29.72c-1.86,6.38 -3.18,12.87 -3.79,19.5c-0.37,4 -0.49,8.01 -0.22,12.03c0.25,3.8 0.8,7.54 1.84,11.21c3.27,11.52 10.41,19.62 21.49,24.19c6.23,2.57 12.78,3.68 19.48,3.97c6.85,0.3 13.64,-0.26 20.38,-1.48c6.03,-1.09 11.95,-2.6 17.66,-4.84c16.69,-6.53 32.29,-15.05 46.72,-25.71c8.19,-6.05 15.83,-12.73 22.78,-20.18c0.42,-0.45 0.6,-0.9 0.6,-1.52c-0.02,-4.51 -0.01,-9.01 -0.01,-13.52c0,-0.28 -0.02,-0.57 -0.04,-0.85c-0.06,-0.04 -0.13,-0.07 -0.19,-0.11c-0.16,0.21 -0.3,0.45 -0.48,0.64c-5.69,6.05 -11.86,11.54 -18.71,16.24c-12.09,8.29 -25.35,13.35 -40.04,14.4c-6,0.43 -11.95,0.1 -17.83,-1.23c-5.26,-1.19 -10.23,-3.13 -14.71,-6.18c-5.09,-3.48 -8.94,-7.99 -11.2,-13.77c-2.38,-6.07 -2.66,-12.33 -1.62,-18.7c0.85,-5.22 2.67,-10.12 5.08,-14.81c2.62,-5.1 5.88,-9.77 9.5,-14.21c0.14,-0.18 0.29,-0.39 0.53,-0.7z" id="svg_11"/>
    <path class="st3" d="m245.61,83.57c-0.04,-0.05 -0.08,-0.1 -0.12,-0.15c-13.39,4.51 -26.79,9.02 -40.18,13.53c0.01,0.06 0.02,0.13 0.03,0.19c5.35,0 10.71,0 16.23,0c-0.27,0.35 -0.42,0.57 -0.59,0.76c-1.76,2.05 -3.53,4.09 -5.3,6.14c-5.9,6.84 -11.81,13.69 -17.71,20.53c-0.17,0.2 -0.43,0.37 -0.46,0.79c10.39,-6.7 20.69,-13.33 30.98,-19.96c0.06,0.03 0.12,0.07 0.17,0.1c-0.67,5.31 -1.47,10.61 -2.03,15.95c6.33,-12.61 12.66,-25.25 18.98,-37.88z" id="svg_12"/>
   </g>
   <path class="st4" d="m351.88,83.44c-0.96,0 -1.62,0 -2.28,0c-5.54,0 -11.09,-0.04 -16.63,0.02c-2.83,0.03 -5.67,0.08 -8.48,0.4c-9.6,1.11 -17.77,5.11 -24.05,12.59c-5.55,6.62 -9.21,14.23 -11.42,22.55c-0.65,2.45 -0.98,4.97 -0.75,7.52c0.51,5.68 3.62,9.29 8.94,11.08c3.11,1.05 6.33,1.48 9.6,1.49c7.11,0.03 14.22,0.02 21.33,0.02c0.36,0 0.72,-0.04 1.19,-0.07c1.31,-3.04 2.58,-6.12 3.86,-9.54c-1,0 -1.64,0 -2.29,0c-6.27,0 -12.54,0.06 -18.8,-0.04c-2.03,-0.03 -4.1,-0.26 -6.07,-0.74c-2.8,-0.67 -3.88,-2.15 -4.09,-5.02c-0.05,-0.65 -0.02,-1.33 0.09,-1.98c1.25,-7.52 4.43,-14.23 8.84,-20.37c4.21,-5.86 9.98,-8.66 17.22,-8.55c5.97,0.09 11.93,0.02 17.9,0.02c0.66,0 1.32,0 2.08,0c1.25,-3.05 2.46,-6.05 3.81,-9.38z" id="svg_13"/>
   <path class="st4" d="m474.12,114.54c1.54,-3.77 3.68,-6.42 7.44,-7.2c2.17,-0.45 4.42,-0.63 6.63,-0.69c4.4,-0.1 8.8,-0.03 13.2,-0.03c0.65,0 1.3,0 2,0c1.16,-2.78 2.29,-5.4 3.26,-8.19c-0.52,-0.05 -0.82,-0.1 -1.12,-0.1c-5.73,0 -11.46,-0.11 -17.18,0.06c-2.63,0.08 -5.3,0.47 -7.85,1.11c-11.95,3.01 -21.73,14.5 -22.99,26.81c-0.65,6.34 2.22,10.5 8.42,11.95c2.1,0.49 4.29,0.74 6.44,0.79c5.6,0.11 11.21,0.05 16.82,0.04c0.35,0 0.7,-0.06 1.14,-0.09c1.08,-2.69 2.15,-5.34 3.29,-8.2c-0.95,0 -1.61,0 -2.26,0c-4.7,0 -9.41,0.06 -14.11,-0.04c-1.85,-0.04 -3.73,-0.32 -5.53,-0.73c-1.63,-0.37 -2.13,-1.25 -2.11,-2.91c0.02,-1.4 0.4,-2.71 1.14,-4.09c8.67,0 17.33,0 26.04,0c1.15,-2.85 2.24,-5.56 3.42,-8.49c-8.78,0 -17.27,0 -26.09,0z" id="svg_14"/>
   <path class="st4" d="m454.68,83.49c-7.49,18.53 -14.93,36.94 -22.43,55.53c4.09,0 7.91,0 11.85,0c7.46,-18.48 14.95,-36.91 22.43,-55.53c-4.09,0 -7.88,0 -11.85,0z" id="svg_15"/>
   <path class="st4" d="m437.57,107.68c-0.21,-3.82 -2.42,-6.31 -5.87,-7.75c-2.65,-1.11 -5.46,-1.5 -8.3,-1.57c-3.25,-0.07 -6.51,-0.02 -9.77,-0.04c-0.57,0 -1.14,-0.07 -1.92,-0.13c2.01,-5 3.92,-9.78 5.89,-14.68c-3.9,0 -7.56,0 -11.34,0c-7.45,18.43 -14.89,36.84 -22.41,55.44c0.49,0.08 0.66,0.14 0.84,0.14c7.84,-0.01 15.68,0.14 23.51,-0.08c6.76,-0.19 12.82,-2.56 18.06,-6.93c5.85,-4.87 9.26,-11.18 10.88,-18.5c0.42,-1.91 0.54,-3.94 0.43,-5.9zm-12.53,5.37c-0.13,1.48 -0.43,3 -0.97,4.38c-0.81,2.06 -1.73,4.11 -2.88,6c-2.47,4.05 -6.12,6.44 -10.9,6.75c-3.48,0.23 -6.97,0.22 -10.45,0.3c-0.28,0.01 -0.57,-0.08 -1.03,-0.15c0.23,-0.65 0.4,-1.21 0.62,-1.75c2.68,-6.64 5.36,-13.27 8.04,-19.9c0.61,-1.51 0.62,-1.52 2.2,-1.52c2.65,0.01 5.3,-0.04 7.94,0.09c1.36,0.07 2.76,0.33 4.06,0.74c2.49,0.79 3.6,2.44 3.37,5.06z" id="svg_16"/>
   <path class="st4" d="m389.51,108.68c0.87,-4.65 -1.1,-7.88 -5.6,-9.34c-2.32,-0.75 -4.71,-1 -7.13,-1c-7.54,0 -15.07,0 -22.61,-0.01c-0.48,0 -0.96,0 -1.58,0c-1.09,2.69 -2.16,5.35 -3.35,8.29c0.92,0 1.56,0 2.2,0c5.67,0 11.34,-0.05 17,0.03c1.91,0.03 3.86,0.23 5.73,0.64c2.38,0.52 3.13,1.89 2.73,4.28c-0.06,0.36 -0.12,0.72 -0.21,1.06c-0.46,1.73 -0.51,1.78 -2.35,1.78c-4.58,0.01 -9.16,0 -13.75,0.01c-3.08,0.01 -6.14,0.2 -9.15,0.91c-7.79,1.86 -12.32,6.97 -14.24,14.53c-1.14,4.48 1.14,7.91 5.68,8.83c1.41,0.28 2.87,0.38 4.31,0.39c9.29,0.03 18.57,0.02 27.86,0.02c0.84,0 1.68,0 2.64,0c0.21,-0.41 0.37,-0.67 0.48,-0.94c3.39,-8.38 6.79,-16.75 10.14,-25.15c0.55,-1.38 0.93,-2.86 1.2,-4.33zm-19.03,19.57c-1.44,3.4 -0.51,2.83 -4.2,2.86c-3.68,0.04 -7.35,0.03 -11.03,-0.01c-1.08,-0.01 -2.17,-0.09 -3.24,-0.27c-1.96,-0.33 -2.55,-1.29 -2.01,-3.22c0.68,-2.45 2.24,-4.11 4.74,-4.74c0.93,-0.23 1.9,-0.39 2.85,-0.4c4.76,-0.05 9.52,-0.03 14.28,-0.03c0.17,0 0.35,0.06 0.86,0.16c-0.78,1.99 -1.48,3.83 -2.25,5.65z" id="svg_17"/>
   <path class="st3" d="m528.09,146.49c-0.93,0 -1.54,0 -2.15,0c-6.3,0 -12.61,-0.08 -18.91,0.03c-3.08,0.05 -6.18,0.26 -9.22,0.74c-7.57,1.2 -14.34,4.27 -19.77,9.77c-8.04,8.15 -13.09,17.98 -14.91,29.24c-1.33,8.21 1.93,14.08 10.61,16.17c2.74,0.66 5.61,0.99 8.42,1.05c7.1,0.15 14.21,0.06 21.32,0.06c0.49,0 0.98,-0.05 1.58,-0.07c1.26,-3.13 2.52,-6.25 3.89,-9.66c-1.05,0 -1.78,0 -2.51,0c-7.11,-0.05 -14.21,-0.04 -21.31,-0.18c-1.58,-0.03 -3.18,-0.42 -4.71,-0.88c-2.19,-0.65 -3.32,-2.31 -3.47,-4.55c-0.08,-1.1 -0.08,-2.25 0.15,-3.32c1.67,-7.86 4.96,-14.97 9.94,-21.28c0.69,-0.87 1.49,-1.65 2.31,-2.41c2.5,-2.32 5.4,-3.92 8.77,-4.53c1.75,-0.32 3.55,-0.54 5.33,-0.56c6.24,-0.07 12.48,-0.03 18.72,-0.03c0.67,0 1.34,0 2.04,0c1.32,-3.22 2.55,-6.28 3.88,-9.59z" id="svg_18"/>
   <path class="st3" d="m661.73,178.97c3.81,0 7.41,0 11.05,0c1.55,-3.87 3.24,-7.59 3.84,-11.67c0.42,-2.89 -0.35,-4.18 -3.22,-4.84c-1.85,-0.43 -3.78,-0.65 -5.68,-0.67c-6.18,-0.08 -12.36,-0.03 -18.53,-0.03c-0.55,0 -1.1,0 -1.74,0c-5.63,13.93 -11.21,27.75 -16.85,41.7c4,0 7.75,0 11.6,0c4.55,-11.25 9.09,-22.45 13.72,-33.88c2.24,0.16 4.46,0.22 6.65,0.49c1.49,0.18 1.78,0.65 1.49,2.16c-0.22,1.14 -0.64,2.25 -1.02,3.35c-0.4,1.1 -0.85,2.17 -1.31,3.39z" id="svg_19"/>
   <path class="st3" d="m572.23,203.49c7.67,-19.01 15.33,-37.86 22.98,-56.92c-4.19,0 -8.06,0 -12.1,0c-7.65,18.93 -15.29,37.84 -23,56.92c4.19,0 8.07,0 12.12,0z" id="svg_20"/>
   <path class="st3" d="m559.86,163.2c-2.41,-1.36 -5.06,-1.98 -7.79,-2.18c-10.05,-0.72 -18.93,2.16 -26.45,8.91c-5.99,5.38 -9.95,11.96 -10.88,20.06c-0.72,6.2 2.21,11.28 8.26,13.25c2.86,0.93 5.8,1.14 10.15,1.2c11.12,-0.33 20.99,-5.54 27.97,-15.94c2.78,-4.14 4.67,-8.71 4.98,-13.78c0.31,-5.12 -1.76,-8.99 -6.24,-11.52zm-6.83,15.96c-1.17,5.34 -3.83,9.86 -8.31,13.16c-3.15,2.31 -6.67,3.4 -10.59,3.17c-4.33,-0.26 -6.92,-3.13 -6.7,-7.42c0.39,-7.74 7,-15.79 14.51,-17.62c1.13,-0.28 2.31,-0.36 3.46,-0.53c5.95,0.05 8.9,3.45 7.63,9.24z" id="svg_21"/>
   <path class="st3" d="m626.56,161.98c-1.58,-0.49 -3.25,-0.84 -4.89,-0.95c-11.89,-0.79 -21.81,3.32 -29.67,12.25c-4.04,4.59 -6.64,9.94 -7.56,16.03c-1.05,6.94 2.43,12.44 9.19,14.17c2.49,0.64 5.1,0.79 7.66,1.17c7.56,-0.21 14.41,-2.36 20.51,-6.76c7.21,-5.2 11.89,-12.12 13.71,-20.86c1.49,-7.22 -1.89,-12.86 -8.95,-15.05zm-4.07,17.97c-1.37,5.18 -4.02,9.54 -8.49,12.65c-2.78,1.94 -5.75,2.88 -9.03,2.88c-0.43,0 -0.87,0.03 -1.3,0c-4.18,-0.28 -6.83,-3 -6.51,-7.19c0.45,-5.82 3.16,-10.59 7.59,-14.35c2.15,-1.83 4.63,-3.09 7.42,-3.62c2.14,-0.41 4.3,-0.52 6.42,0.16c2.62,0.84 4.24,2.89 4.31,5.63c0.03,1.27 -0.09,2.6 -0.41,3.84z" id="svg_22"/>
   <path class="st3" d="m454.99,164.58l-161.32,0c-3.02,0 -5.47,-2.45 -5.47,-5.47l0,0c0,-3.02 2.45,-5.47 5.47,-5.47l161.32,0c3.02,0 5.47,2.45 5.47,5.47l0,0c0,3.02 -2.45,5.47 -5.47,5.47z" id="svg_23"/>
   <path class="st4" d="m633.98,227.33l-161.32,0c-3.02,0 -5.47,-2.45 -5.47,-5.47l0,0c0,-3.02 2.45,-5.47 5.47,-5.47l161.32,0c3.02,0 5.47,2.45 5.47,5.47l0,0c-0.01,3.02 -2.45,5.47 -5.47,5.47z" id="svg_24"/>
  </g>
 </g>
</svg>
